<svg width="64" height="64" viewBox="0 0 64 64" fill="none" xmlns="http://www.w3.org/2000/svg">
<path d="M8.09144 53.6021C2.12796 46.6227 -1.01072 37.1951 0.291834 27.5547C1.57869 17.9294 7.32246 8.10654 16.2991 3.37756C25.2757 -1.36663 37.4851 -1.0017 47.2307 3.77291C56.9919 8.5323 64.2894 17.6862 63.9912 25.8364C63.7087 33.9867 58.9207 43.0018 52.2667 50.1333C45.6127 57.2496 37.0928 62.4823 29.968 63.7747C22.8589 65.0824 14.0549 60.5663 8.09144 53.6021Z" fill="#FEF5EF"/>
<path d="M41.6878 34.0358C41.6812 34.1913 41.7168 34.3457 41.7907 34.4827L41.7907 34.4827C41.8647 34.6197 41.9744 34.7341 42.108 34.8138C42.2417 34.8936 42.3945 34.9357 42.5502 34.9357H45.6245C45.0661 38.1933 43.3853 41.159 40.8662 43.3134L40.8658 43.3137C38.3683 45.4552 35.2405 46.6736 32.2972 46.6736C30.3795 46.6736 28.3633 46.1562 26.4694 45.1688C24.5037 44.1423 22.7987 42.6799 21.4849 40.8934C21.418 40.8021 21.3337 40.7249 21.2369 40.6661C21.1401 40.6072 21.0325 40.568 20.9205 40.5507C20.8085 40.5334 20.6941 40.5383 20.584 40.5652C20.4739 40.5921 20.3701 40.6404 20.2787 40.7074C20.1872 40.7744 20.1098 40.8587 20.051 40.9556C19.9921 41.0525 19.9529 41.16 19.9356 41.272C19.9183 41.384 19.9232 41.4984 19.9501 41.6085C19.977 41.7186 20.0253 41.8224 20.0923 41.9139L20.0927 41.9145C21.5629 43.9139 23.4709 45.5506 25.6708 46.6993L25.671 46.6995C27.7992 47.8092 30.0897 48.4 32.2972 48.4C35.6695 48.4 39.1974 47.0182 41.989 44.6246C44.8907 42.1429 46.7993 38.7027 47.3729 34.9357H50.8519C51.0076 34.9357 51.1604 34.8936 51.2941 34.8139C51.4278 34.7342 51.5374 34.6197 51.6114 34.4828C51.6854 34.3458 51.721 34.1913 51.7144 34.0358C51.7077 33.8803 51.6592 33.7294 51.5738 33.5992L51.5738 33.5992L47.4229 27.2702C47.3444 27.1505 47.2373 27.0521 47.1113 26.9841C46.9852 26.916 46.8443 26.8804 46.7011 26.8804C46.5578 26.8804 46.4169 26.916 46.2909 26.9841C46.1648 27.0521 46.0578 27.1505 45.9792 27.2702L41.8284 33.5992L41.8283 33.5993C41.743 33.7294 41.6944 33.8803 41.6878 34.0358ZM20.415 41.6775C21.8491 43.6278 23.7102 45.2242 25.8559 46.3448L20.415 41.6775ZM44.1486 33.2088L46.701 29.317L49.2535 33.2088H44.1486Z" fill="#F58634" stroke="#FFBB89" stroke-width="0.8"/>
<path d="M19.024 29.0643C19.5824 25.8067 21.2631 22.841 23.7823 20.6866L23.7827 20.6863C26.2802 18.5448 29.4079 17.3264 32.3512 17.3264C34.269 17.3264 36.2851 17.8437 38.1791 18.8312L19.024 29.0643ZM19.024 29.0643H22.0982C22.0982 29.0643 22.0983 29.0643 22.0983 29.0643C22.2539 29.0643 22.4067 29.1064 22.5404 29.1861C22.6741 29.2658 22.7838 29.3803 22.8578 29.5172C22.9318 29.6542 22.9673 29.8086 22.9607 29.9642C22.9541 30.1197 22.9055 30.2706 22.8201 30.4008L22.8201 30.4008L18.6693 36.7298C18.5907 36.8495 18.4836 36.9479 18.3576 37.0159C18.2316 37.084 18.0906 37.1196 17.9474 37.1196C17.8042 37.1196 17.6632 37.084 17.5372 37.0159C17.4112 36.9479 17.3041 36.8495 17.2256 36.7298L13.0747 30.4008L13.0747 30.4008C12.9893 30.2706 12.9407 30.1197 12.9341 29.9642C12.9275 29.8086 12.9631 29.6542 13.037 29.5172C13.111 29.3803 13.2207 29.2658 13.3544 29.1861C13.4881 29.1064 13.6409 29.0643 13.7966 29.0643C13.7966 29.0643 13.7966 29.0643 13.7966 29.0643H17.2756C17.8492 25.2974 19.7577 21.8573 22.6592 19.3755L19.024 29.0643ZM44.5557 22.0855L44.5562 22.0861C44.6915 22.2708 44.7478 22.5017 44.7129 22.728C44.6779 22.9542 44.5545 23.1573 44.3698 23.2926C44.1851 23.4279 43.9542 23.4842 43.728 23.4493C43.5018 23.4144 43.2988 23.2911 43.1636 23.1066C41.8498 21.3201 40.1449 19.8578 38.1793 18.8313L44.5557 22.0855ZM44.5557 22.0855C43.0855 20.0861 41.1775 18.4494 38.9777 17.3006L38.9775 17.3005M44.5557 22.0855L38.9775 17.3005M38.9775 17.3005C36.8493 16.1908 34.5588 15.6 32.3512 15.6M38.9775 17.3005L32.3512 15.6M32.3512 15.6C28.979 15.6 25.4511 16.9818 22.6594 19.3754L32.3512 15.6ZM15.3949 30.7907H20.4999L17.9474 34.6827L15.3949 30.7907Z" fill="#F58634" stroke="#FFBB89" stroke-width="0.8"/>
<path d="M40.9152 24.9463L40.9154 24.9464C41.0602 25.0176 41.1822 25.128 41.2674 25.265C41.3526 25.402 41.3978 25.5602 41.3977 25.7216M40.9152 24.9463L40.9977 33.4026C40.9977 35.3957 39.7067 37.8372 38.0586 38.9608M40.9152 24.9463L32.7049 20.9139L32.7047 20.9138C32.5864 20.8558 32.4563 20.8256 32.3245 20.8256C32.1927 20.8256 32.0627 20.8558 31.9444 20.9138L23.7347 24.9344L23.9105 25.2936L23.7346 24.9344C23.5896 25.0054 23.4673 25.1157 23.3818 25.2527C23.2963 25.3898 23.251 25.5481 23.251 25.7096V33.4026C23.251 34.4791 23.5974 35.6518 24.1489 36.6948C24.7003 37.7377 25.4746 38.6845 26.3646 39.2913L26.5875 38.9644L26.3646 39.2913L31.8378 43.0241M40.9152 24.9463L32.8107 43.0241M41.3977 25.7216L40.9977 25.7213H41.3977V25.7216ZM41.3977 25.7216V33.4026C41.3977 34.4791 41.0512 35.6518 40.4998 36.6948C39.9483 37.7377 39.174 38.6845 38.284 39.2913M38.284 39.2913L38.284 39.2913L38.0586 38.9608M38.284 39.2913L32.8107 43.0241M38.284 39.2913L38.0586 38.9608M38.0586 38.9608L32.8107 43.0241M32.8107 43.0241L32.5895 42.6999L32.8106 43.0242L32.8107 43.0241ZM32.8107 43.0241C32.6673 43.1219 32.4978 43.1742 32.3243 43.1742C32.1507 43.1742 31.9812 43.1219 31.8378 43.0241M31.8378 43.0241L31.8379 43.0242L32.0585 42.7007L31.8378 43.0241ZM37.3113 37.865L37.3113 37.865L32.3243 41.2659L27.3372 37.8647L27.3371 37.8646C26.7192 37.4435 26.1244 36.7184 25.683 35.8837C25.2416 35.049 24.9774 34.1496 24.9774 33.4026V26.248L32.324 22.6501L39.6711 26.2588V33.4026C39.6711 34.1658 39.4117 35.0615 38.9743 35.8885C38.537 36.7155 37.9426 37.4346 37.3113 37.865Z" fill="#F58634" stroke="#FFBB89" stroke-width="0.8"/>
<path d="M30.7272 34.7985L30.7273 34.7985C30.8885 34.9559 31.1049 35.044 31.3302 35.044C31.5555 35.044 31.7719 34.9559 31.9331 34.7985L31.9332 34.7985L36.3996 30.4382C36.4814 30.3599 36.5469 30.2661 36.5925 30.1624C36.6385 30.0578 36.6633 29.9451 36.6653 29.8309C36.6674 29.7166 36.6468 29.6031 36.6047 29.4969C36.5626 29.3907 36.4998 29.2939 36.42 29.2121C36.3401 29.1303 36.2449 29.0652 36.1397 29.0206C36.0345 28.9759 35.9215 28.9526 35.8073 28.9519C35.693 28.9513 35.5797 28.9733 35.4741 29.0167C35.3693 29.0598 35.274 29.1231 35.1937 29.203L31.3302 32.9749L29.4532 31.1424L29.4533 31.1424L29.4496 31.1389C29.2852 30.9823 29.0657 30.8969 28.8386 30.901C28.6116 30.9052 28.3954 30.9986 28.2368 31.1611C28.0782 31.3235 27.9899 31.542 27.9913 31.769C27.9926 31.9961 28.0833 32.2135 28.2437 32.3741L28.2437 32.3741L28.2473 32.3776L30.7272 34.7985Z" fill="#F58634" stroke="#FFBB89" stroke-width="0.8"/>
</svg>
