<svg width="64" height="64" viewBox="0 0 64 64" fill="none" xmlns="http://www.w3.org/2000/svg">
<path d="M8.09144 53.6021C2.12796 46.6227 -1.01072 37.1951 0.291834 27.5547C1.57869 17.9294 7.32246 8.10654 16.2991 3.37756C25.2757 -1.36663 37.4851 -1.0017 47.2307 3.77291C56.9919 8.5323 64.2894 17.6862 63.9912 25.8364C63.7087 33.9867 58.9207 43.0018 52.2667 50.1333C45.6127 57.2496 37.0928 62.4823 29.968 63.7747C22.8589 65.0824 14.0549 60.5663 8.09144 53.6021Z" fill="#FEF5EF"/>
<path d="M19.2 22H22.4C22.7682 22 23.0667 21.7015 23.0667 21.3333C23.0667 20.9651 22.7682 20.6667 22.4 20.6667H19.2C18.8318 20.6667 18.5333 20.9651 18.5333 21.3333C18.5333 21.7015 18.8318 22 19.2 22Z" fill="#F58634" stroke="#FFBB89" stroke-width="0.266667"/>
<path d="M25.0667 22H29.8667C30.2349 22 30.5334 21.7015 30.5334 21.3333C30.5334 20.9651 30.2349 20.6667 29.8667 20.6667H25.0667C24.6985 20.6667 24.4 20.9651 24.4 21.3333C24.4 21.7015 24.6985 22 25.0667 22Z" fill="#F58634" stroke="#FFBB89" stroke-width="0.266667"/>
<path d="M19.2 27.8666H36.2666C36.6348 27.8666 36.9333 27.5682 36.9333 27.2C36.9333 26.8318 36.6348 26.5333 36.2666 26.5333H19.2C18.8318 26.5333 18.5333 26.8318 18.5333 27.2C18.5333 27.5682 18.8318 27.8666 19.2 27.8666Z" fill="#F58634" stroke="#FFBB89" stroke-width="0.266667"/>
<path d="M19.2 34.2666H26.6667C27.0349 34.2666 27.3333 33.9682 27.3333 33.6C27.3333 33.2318 27.0349 32.9333 26.6667 32.9333H19.2C18.8318 32.9333 18.5333 33.2318 18.5333 33.6C18.5333 33.9682 18.8318 34.2666 19.2 34.2666Z" fill="#F58634" stroke="#FFBB89" stroke-width="0.266667"/>
<path d="M19.2 42.8H26.6667C27.0349 42.8 27.3333 42.5015 27.3333 42.1333C27.3333 41.7651 27.0349 41.4667 26.6667 41.4667H19.2C18.8318 41.4667 18.5333 41.7651 18.5333 42.1333C18.5333 42.5015 18.8318 42.8 19.2 42.8Z" fill="#F58634" stroke="#FFBB89" stroke-width="0.266667"/>
<mask id="path-7-outside-1" maskUnits="userSpaceOnUse" x="15" y="15" width="34" height="34" fill="black">
<rect fill="white" x="15" y="15" width="34" height="34"/>
<path d="M47.68 31.536L41.6 28.9104V17.6C41.6 16.7163 40.8836 16 40 16H19.7333C18.8497 16 18.1333 16.7163 18.1333 17.6V18.1333H17.6C16.7163 18.1333 16 18.8497 16 19.7333V46.4C16 47.2836 16.7163 48 17.6 48H37.8667C38.2981 47.999 38.7108 47.8234 39.0107 47.5131L39.448 47.824C39.7786 48.0587 40.2214 48.0587 40.552 47.824L45.712 44.1509C47.1424 43.1357 47.9945 41.4922 48 39.7381V32.0256C48.0003 31.8132 47.8746 31.6209 47.68 31.536ZM19.2 17.6C19.2 17.3054 19.4388 17.0667 19.7333 17.0667H40C40.2945 17.0667 40.5333 17.3054 40.5333 17.6V28.4496L40.2133 28.3104C40.0785 28.2523 39.9257 28.2523 39.7909 28.3104L39.4709 28.4496V25.0667C39.4709 25.0549 39.4651 25.0437 39.464 25.032C39.4613 24.9873 39.4527 24.9432 39.4384 24.9008C39.4347 24.8885 39.4352 24.8757 39.4304 24.864C39.4256 24.8523 39.4219 24.8523 39.4192 24.8459C39.3932 24.7878 39.3571 24.7349 39.3125 24.6896L32.9125 18.2896C32.8672 18.245 32.8143 18.2089 32.7563 18.1829C32.7493 18.1797 32.7445 18.1744 32.7381 18.1717C32.7317 18.1691 32.7136 18.1675 32.7019 18.1637C32.6589 18.1494 32.6143 18.1406 32.5691 18.1376C32.5557 18.1392 32.5451 18.1333 32.5333 18.1333H19.2V17.6ZM33.0667 19.9541L37.6459 24.5333H33.6C33.3054 24.5333 33.0667 24.2945 33.0667 24V19.9541ZM37.8667 46.9333H17.6C17.3054 46.9333 17.0667 46.6945 17.0667 46.4V19.7333C17.0667 19.4388 17.3054 19.2 17.6 19.2H32V24C32 24.8837 32.7163 25.6 33.6 25.6H38.4V28.9104L36.6832 29.6533C36.7569 29.5628 36.798 29.4501 36.8 29.3333C36.8 29.0388 36.5612 28.8 36.2667 28.8H28.8C28.5054 28.8 28.2667 29.0388 28.2667 29.3333C28.2667 29.6279 28.5054 29.8667 28.8 29.8667H36.1861L33.7168 30.9333H19.2C18.9054 30.9333 18.6667 31.1721 18.6667 31.4667C18.6667 31.7612 18.9054 32 19.2 32H32.0037C32.0037 32.0085 32 32.0165 32 32.0256V33.0667H28.8C28.5054 33.0667 28.2667 33.3054 28.2667 33.6C28.2667 33.8945 28.5054 34.1333 28.8 34.1333H32V35.2H19.2C18.9054 35.2 18.6667 35.4388 18.6667 35.7333C18.6667 36.0279 18.9054 36.2667 19.2 36.2667H32V37.3333H28.8C28.5054 37.3333 28.2667 37.5721 28.2667 37.8667C28.2667 38.1612 28.5054 38.4 28.8 38.4H32V39.4667H19.2C18.9054 39.4667 18.6667 39.7054 18.6667 40C18.6667 40.2945 18.9054 40.5333 19.2 40.5333H32.0667C32.1197 40.8972 32.2101 41.2547 32.3365 41.6H28.8C28.5054 41.6 28.2667 41.8388 28.2667 42.1333C28.2667 42.4279 28.5054 42.6667 28.8 42.6667H32.8752C33.1272 43.0591 33.4285 43.4175 33.7717 43.7333H19.2C18.9054 43.7333 18.6667 43.9721 18.6667 44.2667C18.6667 44.5612 18.9054 44.8 19.2 44.8H35.2L38.1056 46.8683C38.0323 46.9089 37.9504 46.9312 37.8667 46.9333ZM46.9333 39.7381C46.9281 41.147 46.2431 42.4666 45.0939 43.2816L40 46.9077L34.9061 43.2811C33.7571 42.4662 33.072 41.1468 33.0667 39.7381V32.3781L34.032 31.9611L34.0421 31.9568L40 29.3808L46.9333 32.376V39.7381Z"/>
</mask>
<path d="M47.68 31.536L41.6 28.9104V17.6C41.6 16.7163 40.8836 16 40 16H19.7333C18.8497 16 18.1333 16.7163 18.1333 17.6V18.1333H17.6C16.7163 18.1333 16 18.8497 16 19.7333V46.4C16 47.2836 16.7163 48 17.6 48H37.8667C38.2981 47.999 38.7108 47.8234 39.0107 47.5131L39.448 47.824C39.7786 48.0587 40.2214 48.0587 40.552 47.824L45.712 44.1509C47.1424 43.1357 47.9945 41.4922 48 39.7381V32.0256C48.0003 31.8132 47.8746 31.6209 47.68 31.536ZM19.2 17.6C19.2 17.3054 19.4388 17.0667 19.7333 17.0667H40C40.2945 17.0667 40.5333 17.3054 40.5333 17.6V28.4496L40.2133 28.3104C40.0785 28.2523 39.9257 28.2523 39.7909 28.3104L39.4709 28.4496V25.0667C39.4709 25.0549 39.4651 25.0437 39.464 25.032C39.4613 24.9873 39.4527 24.9432 39.4384 24.9008C39.4347 24.8885 39.4352 24.8757 39.4304 24.864C39.4256 24.8523 39.4219 24.8523 39.4192 24.8459C39.3932 24.7878 39.3571 24.7349 39.3125 24.6896L32.9125 18.2896C32.8672 18.245 32.8143 18.2089 32.7563 18.1829C32.7493 18.1797 32.7445 18.1744 32.7381 18.1717C32.7317 18.1691 32.7136 18.1675 32.7019 18.1637C32.6589 18.1494 32.6143 18.1406 32.5691 18.1376C32.5557 18.1392 32.5451 18.1333 32.5333 18.1333H19.2V17.6ZM33.0667 19.9541L37.6459 24.5333H33.6C33.3054 24.5333 33.0667 24.2945 33.0667 24V19.9541ZM37.8667 46.9333H17.6C17.3054 46.9333 17.0667 46.6945 17.0667 46.4V19.7333C17.0667 19.4388 17.3054 19.2 17.6 19.2H32V24C32 24.8837 32.7163 25.6 33.6 25.6H38.4V28.9104L36.6832 29.6533C36.7569 29.5628 36.798 29.4501 36.8 29.3333C36.8 29.0388 36.5612 28.8 36.2667 28.8H28.8C28.5054 28.8 28.2667 29.0388 28.2667 29.3333C28.2667 29.6279 28.5054 29.8667 28.8 29.8667H36.1861L33.7168 30.9333H19.2C18.9054 30.9333 18.6667 31.1721 18.6667 31.4667C18.6667 31.7612 18.9054 32 19.2 32H32.0037C32.0037 32.0085 32 32.0165 32 32.0256V33.0667H28.8C28.5054 33.0667 28.2667 33.3054 28.2667 33.6C28.2667 33.8945 28.5054 34.1333 28.8 34.1333H32V35.2H19.2C18.9054 35.2 18.6667 35.4388 18.6667 35.7333C18.6667 36.0279 18.9054 36.2667 19.2 36.2667H32V37.3333H28.8C28.5054 37.3333 28.2667 37.5721 28.2667 37.8667C28.2667 38.1612 28.5054 38.4 28.8 38.4H32V39.4667H19.2C18.9054 39.4667 18.6667 39.7054 18.6667 40C18.6667 40.2945 18.9054 40.5333 19.2 40.5333H32.0667C32.1197 40.8972 32.2101 41.2547 32.3365 41.6H28.8C28.5054 41.6 28.2667 41.8388 28.2667 42.1333C28.2667 42.4279 28.5054 42.6667 28.8 42.6667H32.8752C33.1272 43.0591 33.4285 43.4175 33.7717 43.7333H19.2C18.9054 43.7333 18.6667 43.9721 18.6667 44.2667C18.6667 44.5612 18.9054 44.8 19.2 44.8H35.2L38.1056 46.8683C38.0323 46.9089 37.9504 46.9312 37.8667 46.9333ZM46.9333 39.7381C46.9281 41.147 46.2431 42.4666 45.0939 43.2816L40 46.9077L34.9061 43.2811C33.7571 42.4662 33.072 41.1468 33.0667 39.7381V32.3781L34.032 31.9611L34.0421 31.9568L40 29.3808L46.9333 32.376V39.7381Z" fill="#F58634"/>
<path d="M47.68 31.536L41.6 28.9104V17.6C41.6 16.7163 40.8836 16 40 16H19.7333C18.8497 16 18.1333 16.7163 18.1333 17.6V18.1333H17.6C16.7163 18.1333 16 18.8497 16 19.7333V46.4C16 47.2836 16.7163 48 17.6 48H37.8667C38.2981 47.999 38.7108 47.8234 39.0107 47.5131L39.448 47.824C39.7786 48.0587 40.2214 48.0587 40.552 47.824L45.712 44.1509C47.1424 43.1357 47.9945 41.4922 48 39.7381V32.0256C48.0003 31.8132 47.8746 31.6209 47.68 31.536ZM19.2 17.6C19.2 17.3054 19.4388 17.0667 19.7333 17.0667H40C40.2945 17.0667 40.5333 17.3054 40.5333 17.6V28.4496L40.2133 28.3104C40.0785 28.2523 39.9257 28.2523 39.7909 28.3104L39.4709 28.4496V25.0667C39.4709 25.0549 39.4651 25.0437 39.464 25.032C39.4613 24.9873 39.4527 24.9432 39.4384 24.9008C39.4347 24.8885 39.4352 24.8757 39.4304 24.864C39.4256 24.8523 39.4219 24.8523 39.4192 24.8459C39.3932 24.7878 39.3571 24.7349 39.3125 24.6896L32.9125 18.2896C32.8672 18.245 32.8143 18.2089 32.7563 18.1829C32.7493 18.1797 32.7445 18.1744 32.7381 18.1717C32.7317 18.1691 32.7136 18.1675 32.7019 18.1637C32.6589 18.1494 32.6143 18.1406 32.5691 18.1376C32.5557 18.1392 32.5451 18.1333 32.5333 18.1333H19.2V17.6ZM33.0667 19.9541L37.6459 24.5333H33.6C33.3054 24.5333 33.0667 24.2945 33.0667 24V19.9541ZM37.8667 46.9333H17.6C17.3054 46.9333 17.0667 46.6945 17.0667 46.4V19.7333C17.0667 19.4388 17.3054 19.2 17.6 19.2H32V24C32 24.8837 32.7163 25.6 33.6 25.6H38.4V28.9104L36.6832 29.6533C36.7569 29.5628 36.798 29.4501 36.8 29.3333C36.8 29.0388 36.5612 28.8 36.2667 28.8H28.8C28.5054 28.8 28.2667 29.0388 28.2667 29.3333C28.2667 29.6279 28.5054 29.8667 28.8 29.8667H36.1861L33.7168 30.9333H19.2C18.9054 30.9333 18.6667 31.1721 18.6667 31.4667C18.6667 31.7612 18.9054 32 19.2 32H32.0037C32.0037 32.0085 32 32.0165 32 32.0256V33.0667H28.8C28.5054 33.0667 28.2667 33.3054 28.2667 33.6C28.2667 33.8945 28.5054 34.1333 28.8 34.1333H32V35.2H19.2C18.9054 35.2 18.6667 35.4388 18.6667 35.7333C18.6667 36.0279 18.9054 36.2667 19.2 36.2667H32V37.3333H28.8C28.5054 37.3333 28.2667 37.5721 28.2667 37.8667C28.2667 38.1612 28.5054 38.4 28.8 38.4H32V39.4667H19.2C18.9054 39.4667 18.6667 39.7054 18.6667 40C18.6667 40.2945 18.9054 40.5333 19.2 40.5333H32.0667C32.1197 40.8972 32.2101 41.2547 32.3365 41.6H28.8C28.5054 41.6 28.2667 41.8388 28.2667 42.1333C28.2667 42.4279 28.5054 42.6667 28.8 42.6667H32.8752C33.1272 43.0591 33.4285 43.4175 33.7717 43.7333H19.2C18.9054 43.7333 18.6667 43.9721 18.6667 44.2667C18.6667 44.5612 18.9054 44.8 19.2 44.8H35.2L38.1056 46.8683C38.0323 46.9089 37.9504 46.9312 37.8667 46.9333ZM46.9333 39.7381C46.9281 41.147 46.2431 42.4666 45.0939 43.2816L40 46.9077L34.9061 43.2811C33.7571 42.4662 33.072 41.1468 33.0667 39.7381V32.3781L34.032 31.9611L34.0421 31.9568L40 29.3808L46.9333 32.376V39.7381Z" stroke="#FFBB89" stroke-width="0.533333" mask="url(#path-7-outside-1)"/>
<path d="M34.4 32.816L34.4004 32.8158L39.7333 30.512C39.7334 30.5119 39.7334 30.5119 39.7335 30.5119C39.9034 30.4378 40.0965 30.4378 40.2664 30.5118C40.2665 30.5119 40.2666 30.5119 40.2666 30.512L45.5995 32.8158L45.6 32.816C45.8433 32.9221 46.0004 33.1625 46 33.428M34.4 32.816L44.5528 42.5211C44.5529 42.521 44.5529 42.521 44.553 42.5209C45.4559 41.8813 45.9948 40.8453 46 39.7388V39.7381V33.428M34.4 32.816C34.1567 32.9221 33.9996 33.1624 34 33.4278M34.4 32.816L34 33.4278M46 33.428L45.8666 33.4278H46V33.428ZM34 33.4278V33.4278H34.1333L34 33.428C34 33.4279 34 33.4279 34 33.4278ZM43.7796 41.4377L43.7792 41.438L40 44.1254L36.2208 41.4349L36.2203 41.4345C35.6681 41.0452 35.3378 40.4133 35.3333 39.7377V33.8658L39.9999 31.8503L44.6666 33.8684V39.7378C44.6629 40.4144 44.3325 41.0476 43.7796 41.4377Z" fill="#F58634" stroke="#FFBB89" stroke-width="0.266667"/>
<path d="M37.2 38.4L37.1999 38.4C37.0094 38.2571 36.7571 38.2267 36.5381 38.3203C36.319 38.4138 36.1666 38.6171 36.1381 38.8536C36.1096 39.0901 36.2094 39.3238 36.3999 39.4667L38.5333 41.0667C38.5333 41.0667 38.5333 41.0667 38.5333 41.0667C38.8213 41.2828 39.2289 41.2312 39.4539 40.95L39.4539 40.95L43.7206 35.6167C43.7206 35.6166 43.7206 35.6166 43.7206 35.6166C43.9507 35.3291 43.9041 34.9095 43.6166 34.6794C43.3291 34.4493 42.9094 34.4958 42.6793 34.7834L42.6793 34.7834L38.8166 39.6126L37.2 38.4Z" fill="#F58634" stroke="#FFBB89" stroke-width="0.266667"/>
</svg>
