<svg width="28" height="28" viewBox="0 0 28 28" fill="none" xmlns="http://www.w3.org/2000/svg">
<rect width="28" height="28" rx="2" fill="#A8518A" fill-opacity="0.1"/>
<path fill-rule="evenodd" clip-rule="evenodd" d="M16.1248 9.18529V11.1187H18.0582L16.1248 9.18529ZM15.4262 11.1187V9.02307H10.8856C10.6929 9.02307 10.5364 9.17937 10.5364 9.37269V18.4532C10.5364 18.6467 10.6929 18.8027 10.8856 18.8027H17.8711C18.0639 18.8027 18.2204 18.6467 18.2204 18.4532V11.8178H16.1247H15.4262V11.1187ZM18.919 11.1197V11.1199V19.1521C18.919 19.3453 18.7625 19.5014 18.5697 19.5014H10.1872C9.99436 19.5014 9.83789 19.3453 9.83789 19.1521V8.67414C9.83789 8.48064 9.99436 8.32434 10.1872 8.32434H16.1248V8.32556V8.32539L18.9179 11.1187H18.919V11.1197Z" fill="#A8518A"/>
</svg>
